<svg xmlns="http://www.w3.org/2000/svg" viewBox="0 0 64 64" role="img" aria-label="WhatsApp">
  <circle cx="32" cy="32" r="30" fill="#25d366"/>
  <path fill="#fff" d="M18.2 47.7l2.1-7.7a18 18 0 1 1 6.9 5.7l-9 2z"/>
  <path fill="#25d366" d="M28.1 23.2c-.4-.9-.8-.9-1.2-.9h-1c-.4 0-.9.1-1.4.7s-1.8 1.8-1.8 4.3 1.9 5 2.1 5.3c.3.4 3.6 5.8 9 7.9 4.5 1.8 5.4 1.4 6.4 1.3 1-.2 3.2-1.3 3.7-2.6.5-1.2.5-2.3.3-2.5-.1-.2-.5-.4-1.1-.7l-3.5-1.8c-.5-.2-1-.4-1.4.3-.4.6-1.6 2-2 2.4-.4.4-.7.5-1.3.2-.6-.3-2.5-.9-4.7-2.9-1.7-1.5-2.9-3.4-3.3-4-.3-.6 0-.9.3-1.2.3-.3.6-.7.9-1 .3-.4.4-.6.6-1 .2-.4.1-.8-.1-1.1l-1.5-3.7z"/>
</svg>
